<svg width="22" height="20" viewBox="0 0 22 20" fill="none" xmlns="http://www.w3.org/2000/svg">
  <g filter="url(#filter0_d_220_1063)">
    <path
      d="M8.25 16.5625C8.25 16.8344 8.16936 17.1003 8.01827 17.3264C7.86718 17.5525 7.65244 17.7288 7.40119 17.8328C7.14994 17.9369 6.87347 17.9641 6.60675 17.9111C6.34003 17.858 6.09503 17.7271 5.90273 17.5348C5.71043 17.3425 5.57947 17.0975 5.52642 16.8307C5.47337 16.564 5.5006 16.2876 5.60467 16.0363C5.70874 15.7851 5.88497 15.5703 6.11109 15.4192C6.33721 15.2681 6.60305 15.1875 6.875 15.1875C7.23967 15.1875 7.58941 15.3324 7.84727 15.5902C8.10513 15.8481 8.25 16.1978 8.25 16.5625ZM15.8125 15.1875C15.5406 15.1875 15.2747 15.2681 15.0486 15.4192C14.8225 15.5703 14.6462 15.7851 14.5422 16.0363C14.4381 16.2876 14.4109 16.564 14.4639 16.8307C14.517 17.0975 14.6479 17.3425 14.8402 17.5348C15.0325 17.7271 15.2775 17.858 15.5443 17.9111C15.811 17.9641 16.0874 17.9369 16.3387 17.8328C16.5899 17.7288 16.8047 17.5525 16.9558 17.3264C17.1069 17.1003 17.1875 16.8344 17.1875 16.5625C17.1875 16.1978 17.0426 15.8481 16.7848 15.5902C16.5269 15.3324 16.1772 15.1875 15.8125 15.1875ZM19.6023 3.775C19.5379 3.6901 19.4547 3.62116 19.3594 3.57348C19.264 3.5258 19.159 3.50066 19.0523 3.5H4.15078L3.45469 1.05937C3.37122 0.772642 3.19722 0.52061 2.95869 0.340934C2.72015 0.161258 2.42988 0.0635825 2.13125 0.0625H0.6875C0.505164 0.0625 0.330295 0.134933 0.201364 0.263864C0.0724328 0.392795 0 0.567664 0 0.75C0 0.932336 0.0724328 1.1072 0.201364 1.23614C0.330295 1.36507 0.505164 1.4375 0.6875 1.4375H2.13125L2.97344 4.36797V4.38516L5.24219 12.3172C5.36677 12.7476 5.62761 13.1261 5.98555 13.3957C6.34349 13.6653 6.77922 13.8116 7.22734 13.8125H15.4602C15.9083 13.8116 16.344 13.6653 16.702 13.3957C17.0599 13.1261 17.3207 12.7476 17.4453 12.3172L19.7141 4.37656C19.7431 4.27447 19.7482 4.16703 19.7288 4.06267C19.7094 3.9583 19.6661 3.85984 19.6023 3.775V3.775Z"
      fill="#F3F2F2" />
    <path
      d="M19.2035 4.07648C19.1854 4.05301 19.1622 4.03394 19.1357 4.02069C19.1092 4.00742 19.08 4.00034 19.0503 4H4.15078H3.77345L3.66996 3.63714L2.97428 1.19797C2.92084 1.01533 2.80987 0.854815 2.65786 0.740311C2.50574 0.625727 2.32067 0.563363 2.13024 0.5625H0.6875C0.637772 0.5625 0.59008 0.582254 0.554918 0.617417C0.519754 0.65258 0.5 0.700272 0.5 0.75C0.5 0.799728 0.519754 0.847419 0.554918 0.882582C0.590081 0.917746 0.637772 0.9375 0.6875 0.9375H2.13125H2.50779L2.6118 1.2994L3.45399 4.22986L3.47344 4.29755V4.31506L5.72248 12.1782C5.72254 12.1784 5.7226 12.1786 5.72266 12.1788C5.81723 12.5051 6.01502 12.7919 6.28638 12.9963C6.55779 13.2008 6.88816 13.3117 7.22795 13.3125C7.22809 13.3125 7.22824 13.3125 7.22838 13.3125H15.4591C15.4593 13.3125 15.4594 13.3125 15.4595 13.3125C15.7993 13.3117 16.1297 13.2008 16.4011 12.9963C16.6724 12.792 16.8702 12.5052 16.9648 12.1791C16.9649 12.1788 16.9649 12.1785 16.965 12.1782L19.2332 4.23957L19.2035 4.07648ZM19.2035 4.07648C19.2205 4.0994 19.232 4.12589 19.2372 4.15396C19.2425 4.1823 19.2411 4.21147 19.2333 4.2392L19.2035 4.07648ZM7.75 16.5625C7.75 16.7356 7.69868 16.9047 7.60254 17.0486C7.50639 17.1925 7.36973 17.3047 7.20985 17.3709C7.04996 17.4371 6.87403 17.4544 6.7043 17.4207C6.53456 17.3869 6.37865 17.3036 6.25628 17.1812C6.13391 17.0588 6.05057 16.9029 6.01681 16.7332C5.98305 16.5635 6.00038 16.3875 6.06661 16.2277C6.13283 16.0678 6.24498 15.9311 6.38888 15.835C6.53277 15.7388 6.70194 15.6875 6.875 15.6875C7.10706 15.6875 7.32962 15.7797 7.49372 15.9438C7.65781 16.1079 7.75 16.3304 7.75 16.5625ZM15.3264 15.835C15.4703 15.7388 15.6394 15.6875 15.8125 15.6875C16.0446 15.6875 16.2671 15.7797 16.4312 15.9438C16.5953 16.1079 16.6875 16.3304 16.6875 16.5625C16.6875 16.7356 16.6362 16.9047 16.54 17.0486C16.4439 17.1925 16.3072 17.3047 16.1473 17.3709C15.9875 17.4371 15.8115 17.4544 15.6418 17.4207C15.4721 17.3869 15.3162 17.3036 15.1938 17.1812C15.0714 17.0588 14.9881 16.9029 14.9543 16.7332C14.9206 16.5635 14.9379 16.3875 15.0041 16.2277C15.0703 16.0678 15.1825 15.9311 15.3264 15.835Z"
      stroke="black" />
  </g>
  <defs>
    <filter id="filter0_d_220_1063" x="-4" y="0.0625" width="27.7404" height="25.875" filterUnits="userSpaceOnUse"
      color-interpolation-filters="sRGB">
      <feFlood flood-opacity="0" result="BackgroundImageFix" />
      <feColorMatrix in="SourceAlpha" type="matrix" values="0 0 0 0 0 0 0 0 0 0 0 0 0 0 0 0 0 0 127 0"
        result="hardAlpha" />
      <feOffset dy="4" />
      <feGaussianBlur stdDeviation="2" />
      <feComposite in2="hardAlpha" operator="out" />
      <feColorMatrix type="matrix" values="0 0 0 0 0 0 0 0 0 0 0 0 0 0 0 0 0 0 0.25 0" />
      <feBlend mode="normal" in2="BackgroundImageFix" result="effect1_dropShadow_220_1063" />
      <feBlend mode="normal" in="SourceGraphic" in2="effect1_dropShadow_220_1063" result="shape" />
    </filter>
  </defs>
</svg>